<svg width="137" height="47" viewBox="0 0 137 47" fill="none" xmlns="http://www.w3.org/2000/svg">
<path d="M1.875 39V9.90909H9.77273V21.6705H10.1705L18.9205 9.90909H28.125L18.2955 22.8636L28.3523 39H18.9205L12.3864 28.0909L9.77273 31.5V39H1.875ZM30.5824 39V17.1818H38.196V21.3295H38.4233C38.821 19.7955 39.4508 18.6733 40.3125 17.9631C41.1837 17.2528 42.2017 16.8977 43.3665 16.8977C43.7074 16.8977 44.0436 16.9261 44.375 16.983C44.7159 17.0303 45.0426 17.1013 45.3551 17.196V23.8864C44.9669 23.7538 44.4886 23.6544 43.9205 23.5881C43.3523 23.5218 42.8646 23.4886 42.4574 23.4886C41.6903 23.4886 40.9991 23.6638 40.3835 24.0142C39.7775 24.3551 39.2992 24.8381 38.9489 25.4631C38.5985 26.0786 38.4233 26.803 38.4233 27.6364V39H30.5824ZM47.9261 39V17.1818H55.767V39H47.9261ZM51.8466 14.9091C50.786 14.9091 49.8769 14.5587 49.1193 13.858C48.3617 13.1572 47.983 12.3144 47.983 11.3295C47.983 10.3447 48.3617 9.50189 49.1193 8.80114C49.8769 8.10038 50.786 7.75 51.8466 7.75C52.9167 7.75 53.8258 8.10038 54.5739 8.80114C55.3314 9.50189 55.7102 10.3447 55.7102 11.3295C55.7102 12.3144 55.3314 13.1572 54.5739 13.858C53.8258 14.5587 52.9167 14.9091 51.8466 14.9091ZM79.7053 24.2841H72.4893C72.4515 23.839 72.2952 23.4555 72.0206 23.1335C71.746 22.8116 71.3909 22.5653 70.9553 22.3949C70.5291 22.215 70.0556 22.125 69.5348 22.125C68.8625 22.125 68.2848 22.2481 67.8018 22.4943C67.3189 22.7405 67.0821 23.0909 67.0916 23.5455C67.0821 23.8674 67.2195 24.1657 67.5036 24.4403C67.7971 24.715 68.3606 24.928 69.1939 25.0795L73.6257 25.875C75.8606 26.2822 77.5225 26.9687 78.6115 27.9347C79.71 28.8911 80.264 30.1742 80.2734 31.7841C80.264 33.3371 79.8 34.6866 78.8814 35.8324C77.9723 36.9687 76.727 37.8494 75.1456 38.4744C73.5736 39.09 71.7791 39.3977 69.7621 39.3977C66.4287 39.3977 63.8198 38.7159 61.9354 37.3523C60.0604 35.9886 59.014 34.1894 58.7962 31.9545H66.5803C66.6844 32.6458 67.0253 33.1809 67.603 33.5597C68.1901 33.929 68.9287 34.1136 69.8189 34.1136C70.5386 34.1136 71.1304 33.9905 71.5945 33.7443C72.0679 33.4981 72.3094 33.1477 72.3189 32.6932C72.3094 32.2765 72.1011 31.9451 71.6939 31.6989C71.2962 31.4527 70.6712 31.2538 69.8189 31.1023L65.9553 30.4205C63.7299 30.0322 62.0632 29.2936 60.9553 28.2045C59.8473 27.1155 59.2981 25.714 59.3075 24C59.2981 22.4848 59.6958 21.2017 60.5007 20.1506C61.3151 19.09 62.4751 18.285 63.9808 17.7358C65.496 17.1771 67.2905 16.8977 69.3643 16.8977C72.5178 16.8977 75.0036 17.5511 76.8217 18.858C78.6494 20.1648 79.6106 21.9735 79.7053 24.2841ZM83.1641 39V9.90909H95.7777C97.9936 9.90909 99.8544 10.2074 101.36 10.804C102.875 11.4006 104.016 12.2434 104.783 13.3324C105.56 14.4214 105.948 15.7045 105.948 17.1818C105.948 18.2519 105.711 19.2273 105.238 20.108C104.774 20.9886 104.121 21.7273 103.278 22.3239C102.435 22.911 101.45 23.3182 100.323 23.5455V23.8295C101.573 23.8769 102.71 24.1941 103.732 24.7812C104.755 25.3589 105.569 26.1591 106.175 27.1818C106.781 28.1951 107.085 29.3883 107.085 30.7614C107.085 32.3523 106.668 33.768 105.835 35.0085C105.011 36.2491 103.836 37.2244 102.312 37.9347C100.787 38.6449 98.969 39 96.8572 39H83.1641ZM91.0618 32.6932H94.755C96.0807 32.6932 97.075 32.447 97.7379 31.9545C98.4008 31.4527 98.7322 30.714 98.7322 29.7386C98.7322 29.0568 98.576 28.4792 98.2635 28.0057C97.951 27.5322 97.5059 27.1723 96.9283 26.9261C96.3601 26.6799 95.6735 26.5568 94.8686 26.5568H91.0618V32.6932ZM91.0618 21.6705H94.3004C94.9917 21.6705 95.6025 21.5616 96.1328 21.3438C96.6631 21.1259 97.075 20.8134 97.3686 20.4062C97.6716 19.9896 97.8232 19.483 97.8232 18.8864C97.8232 17.9867 97.5012 17.3002 96.8572 16.8267C96.2133 16.3438 95.3989 16.1023 94.4141 16.1023H91.0618V21.6705Z" fill="#F7F7F2"/>
<path d="M114.258 39.4545C113.159 39.4545 112.217 39.071 111.431 38.304C110.655 37.5275 110.271 36.5852 110.281 35.4773C110.271 34.3977 110.655 33.4744 111.431 32.7074C112.217 31.9403 113.159 31.5568 114.258 31.5568C115.299 31.5568 116.218 31.9403 117.013 32.7074C117.818 33.4744 118.226 34.3977 118.235 35.4773C118.226 36.2159 118.031 36.8883 117.653 37.4943C117.283 38.0909 116.8 38.5691 116.204 38.929C115.607 39.2794 114.959 39.4545 114.258 39.4545Z" fill="#C5D86D"/>
</svg>
